<svg xmlns="http://www.w3.org/2000/svg" viewBox="0 0 768 512" width="768" height="512">
  <!-- Black background -->
  <rect width="768" height="512" fill="#000000"/>
  
  <!-- Pixelated MPdao in 8-bit style -->
  <g fill="white">
    <!-- M -->
    <rect x="80" y="140" width="40" height="200"/>
    <rect x="120" y="140" width="40" height="40"/>
    <rect x="160" y="180" width="40" height="40"/>
    <rect x="200" y="220" width="40" height="40"/>
    <rect x="240" y="180" width="40" height="40"/>
    <rect x="280" y="140" width="40" height="200"/>
    
    <!-- P -->
    <rect x="360" y="140" width="40" height="200"/>
    <rect x="400" y="140" width="80" height="40"/>
    <rect x="400" y="220" width="80" height="40"/>
    <rect x="480" y="180" width="40" height="80"/>
    
    <!-- d -->
    <rect x="580" y="60" width="40" height="280"/>
    <rect x="540" y="220" width="40" height="120"/>
    <rect x="500" y="300" width="80" height="40"/>
    <rect x="500" y="220" width="80" height="40"/>
  </g>
</svg>