<?xml version="1.0" standalone="no"?>
<!DOCTYPE svg PUBLIC "-//W3C//DTD SVG 20010904//EN"
 "http://www.w3.org/TR/2001/REC-SVG-20010904/DTD/svg10.dtd">
<svg version="1.0" xmlns="http://www.w3.org/2000/svg"
 width="576.000000pt" height="576.000000pt" viewBox="0 0 576.000000 576.000000"
 preserveAspectRatio="xMidYMid meet">
<g transform="translate(0.000000,576.000000) scale(0.100000,-0.100000)"
fill="#000000" stroke="none">
<path d="M3168 3583 c7 -3 16 -2 19 1 4 3 -2 6 -13 5 -11 0 -14 -3 -6 -6z"/>
<path d="M3130 3567 c0 -5 -4 -6 -9 -3 -16 10 -21 -23 -21 -127 0 -158 12
-146 -149 -149 -135 -3 -136 -3 -133 -25 2 -13 -2 -23 -8 -23 -6 0 -8 -5 -4
-12 4 -6 3 -8 -3 -5 -10 6 -78 -14 -90 -28 -5 -4 -2 -5 5 -1 18 11 15 -5 -5
-21 -10 -8 -12 -12 -5 -8 18 9 15 -6 -5 -21 -16 -11 -19 -37 -23 -222 -3 -116
-2 -208 2 -206 4 3 5 -15 2 -39 -6 -39 -4 -46 15 -56 12 -7 27 -9 33 -5 7 4 8
3 4 -5 -4 -7 2 -20 16 -32 17 -15 18 -19 6 -15 -28 8 -21 -1 12 -17 21 -11 31
-12 35 -3 3 6 4 2 1 -10 -2 -13 4 -26 17 -33 16 -11 17 -15 6 -22 -8 -5 -9 -9
-3 -9 5 0 16 6 23 13 11 9 13 9 7 0 -4 -7 -2 -13 3 -13 6 0 11 3 11 8 0 4 48
6 107 5 277 -7 430 -8 423 -3 -5 3 2 10 16 17 26 12 31 5 12 -17 -11 -12 -10
-12 5 -1 16 13 17 50 17 535 l0 523 -24 22 c-23 22 -30 23 -160 20 -75 -2
-136 -8 -136 -12z m290 -537 l0 -520 -289 0 -290 0 -3 33 c-2 20 -9 33 -18 33
-8 1 -23 2 -32 3 -13 1 -18 10 -18 31 0 27 -3 30 -30 30 l-30 0 0 245 0 245
30 0 c28 0 30 3 30 34 0 32 3 35 33 38 27 2 33 8 35 31 l3 27 139 0 c121 0
139 2 144 17 4 9 7 69 6 133 -1 63 -1 121 -1 128 1 9 37 12 146 12 l145 0 0
-520z"/>
<path d="M2908 3213 c7 -3 16 -2 19 1 4 3 -2 6 -13 5 -11 0 -14 -3 -6 -6z"/>
<path d="M3180 3211 c0 -6 4 -13 10 -16 6 -3 7 1 4 9 -7 18 -14 21 -14 7z"/>
<path d="M3061 3178 c5 -38 -2 -48 -31 -48 l-30 0 0 -278 0 -278 30 -2 c28 -2
30 0 30 33 0 32 2 35 30 35 22 0 31 5 35 23 3 12 4 135 3 272 l-3 250 -33 3
c-23 2 -33 -1 -31 -10z m29 -250 c0 -101 3 -199 6 -219 6 -34 4 -37 -25 -47
l-31 -11 0 224 c0 169 3 225 13 228 36 15 37 11 37 -175z m-58 -126 c2 -111 0
-202 -4 -202 -5 0 -7 114 -6 253 2 280 6 259 10 -51z"/>
<path d="M3008 3173 c7 -3 16 -2 19 1 4 3 -2 6 -13 5 -11 0 -14 -3 -6 -6z"/>
<path d="M3181 2684 c0 -11 3 -14 6 -6 3 7 2 16 -1 19 -3 4 -6 -2 -5 -13z"/>
<path d="M2830 2626 c0 -2 9 -6 20 -9 11 -3 20 -1 20 4 0 5 -9 9 -20 9 -11 0
-20 -2 -20 -4z"/>
<path d="M837 3531 c-10 -4 -19 -11 -19 -16 0 -6 -4 -16 -10 -23 -8 -9 -7 -11
6 -6 9 3 16 2 16 -4 0 -6 -6 -13 -12 -15 -10 -4 -10 -6 0 -6 18 -1 18 -941 0
-941 -7 -1 3 -10 22 -21 26 -15 29 -19 12 -15 -13 2 -22 2 -19 -1 3 -2 76 -6
163 -6 87 -1 150 0 140 1 -16 3 -15 6 5 16 l24 12 5 304 c3 168 6 295 8 283 3
-33 13 -53 23 -47 5 3 9 -5 10 -18 0 -13 4 -32 9 -43 7 -15 8 -10 4 16 -4 29
-2 36 11 36 9 0 14 -6 11 -14 -6 -15 24 -54 36 -47 4 3 8 1 8 -5 0 -7 8 -7 25
-1 14 5 31 9 38 7 7 -1 13 10 15 24 2 21 10 28 32 31 l30 4 2 -275 3 -276 35
2 c27 2 30 0 12 -5 -13 -4 41 -7 120 -7 125 0 146 2 163 18 20 18 20 30 19
512 -1 464 -2 496 -19 515 -12 14 -31 20 -57 20 -57 0 -80 -15 -72 -48 4 -19
3 -23 -4 -13 -8 11 -16 8 -41 -14 -17 -15 -28 -32 -24 -38 4 -6 0 -8 -9 -5
-17 7 -58 -40 -58 -67 0 -8 -4 -15 -10 -15 -5 0 -10 5 -10 12 0 6 -9 1 -19
-11 -14 -16 -21 -18 -24 -9 -3 7 -6 1 -6 -14 -1 -24 -5 -28 -30 -28 -17 0 -33
-5 -37 -12 -5 -8 -2 -9 9 -5 10 3 17 2 17 -3 0 -6 -5 -10 -11 -10 -5 0 -7 -5
-3 -12 5 -8 1 -9 -12 -4 -15 6 -17 5 -6 -5 6 -7 12 -16 12 -20 0 -4 -6 -7 -12
-6 -31 1 -49 -4 -44 -11 3 -5 -1 -9 -9 -9 -8 0 -12 4 -9 9 3 4 -2 9 -10 9 -9
1 -20 3 -26 4 -5 1 -14 3 -20 4 -5 0 -10 10 -10 20 0 11 -5 23 -10 26 -6 4 -8
10 -5 15 8 14 -28 22 -38 8 -6 -9 -7 -6 -4 8 4 22 -9 33 -55 48 -10 3 -18 13
-18 23 -1 25 -24 53 -44 53 -9 0 -16 5 -16 11 0 5 5 7 10 4 6 -3 10 -4 10 -1
0 2 -18 15 -40 27 -22 13 -40 26 -40 31 0 4 -8 17 -17 28 -13 15 -29 20 -63
19 -25 0 -53 -4 -63 -8z m3 -21 c0 -5 -2 -10 -4 -10 -3 0 -8 5 -11 10 -3 6 -1
10 4 10 6 0 11 -4 11 -10z m112 -27 c2 -22 9 -29 33 -33 25 -4 30 -10 33 -38
3 -28 7 -32 33 -32 25 0 29 -4 29 -29 0 -26 4 -30 33 -33 26 -2 33 -8 35 -30
3 -21 9 -27 30 -30 21 -2 28 -9 32 -33 4 -24 11 -31 32 -33 21 -3 27 -9 30
-30 2 -23 9 -28 36 -30 29 -3 33 -1 28 15 -8 25 4 40 34 44 20 3 26 11 28 37
3 28 7 32 33 32 25 0 29 4 29 29 0 26 4 30 33 33 28 3 32 7 35 34 3 27 6 30
32 26 26 -4 29 -1 32 29 3 30 7 34 36 37 28 3 32 7 32 33 0 30 1 30 48 27 l47
-3 3 -497 2 -498 -150 0 -150 0 0 311 0 310 -27 -3 c-23 -2 -29 -8 -31 -35 -3
-29 -7 -33 -33 -33 -26 0 -29 -3 -29 -31 0 -28 -2 -30 -32 -27 -28 2 -34 8
-36 31 -3 22 -8 27 -32 27 -25 0 -29 4 -32 33 -3 28 -7 32 -31 32 l-27 0 -3
-305 -2 -305 -147 -3 -147 -3 -1 501 0 500 49 0 c47 0 50 -2 53 -27z m488
-403 c0 -5 -4 -10 -10 -10 -5 0 -10 5 -10 10 0 6 5 10 10 10 6 0 10 -4 10 -10z
m-10 -30 c-20 -13 -33 -13 -25 0 3 6 14 10 23 10 15 0 15 -2 2 -10z m307 -566
c-3 -3 -12 -4 -19 -1 -8 3 -5 6 6 6 11 1 17 -2 13 -5z"/>
<path d="M990 3370 c0 -5 5 -10 11 -10 5 0 7 5 4 10 -3 6 -8 10 -11 10 -2 0
-4 -4 -4 -10z"/>
<path d="M1476 3251 c-3 -4 6 -6 19 -3 14 2 25 6 25 8 0 8 -39 4 -44 -5z"/>
<path d="M1485 3200 c3 -5 8 -10 11 -10 2 0 4 5 4 10 0 6 -5 10 -11 10 -5 0
-7 -4 -4 -10z"/>
<path d="M1300 3090 c0 -5 7 -7 15 -4 8 4 15 8 15 10 0 2 -7 4 -15 4 -8 0 -15
-4 -15 -10z"/>
<path d="M1878 3523 c-21 -8 -35 -19 -32 -24 3 -5 12 -2 21 6 21 22 30 10 10
-13 -11 -12 -13 -22 -7 -28 6 -6 11 -201 12 -491 2 -392 1 -483 -10 -490 -8
-4 61 -8 156 -8 94 0 168 4 165 9 -6 10 16 26 36 26 11 0 10 -4 -3 -13 -18
-13 -18 -14 0 -21 10 -4 15 -4 11 0 -4 4 -2 13 4 20 9 11 7 15 -6 20 -13 5
-14 9 -3 15 8 6 9 9 1 9 -8 0 -12 47 -13 164 -1 184 -8 168 78 181 23 4 42 12
42 18 1 35 18 41 109 38 79 -2 92 0 110 18 12 12 21 27 21 34 0 6 15 19 33 28
l32 16 -1 84 c-3 189 -9 288 -15 278 -4 -8 -9 -8 -13 -1 -3 6 -2 13 4 17 5 3
10 11 10 17 0 6 -9 3 -21 -8 -17 -16 -22 -16 -29 -4 -6 8 -10 21 -10 28 0 6
-5 12 -12 12 -6 0 -8 3 -5 6 4 4 -13 22 -38 40 l-44 34 -278 -1 c-228 0 -285
-3 -315 -16z m603 -25 c1 -7 2 -20 3 -28 0 -8 14 -17 31 -20 24 -4 31 -11 35
-35 5 -26 9 -30 33 -27 l27 3 0 -175 0 -176 -30 0 c-27 0 -30 -3 -30 -30 l0
-29 -112 -3 -113 -3 -3 -32 -3 -33 -60 0 c-32 0 -59 -3 -59 -7 0 -5 -1 -95 -1
-201 l-1 -193 -146 3 -147 3 -3 498 -2 497 290 0 c225 0 290 -3 291 -12z m43
-13 c3 -8 1 -15 -4 -15 -6 0 -10 7 -10 15 0 8 2 15 4 15 2 0 6 -7 10 -15z
m-607 -1001 c-3 -3 -12 -4 -19 -1 -8 3 -5 6 6 6 11 1 17 -2 13 -5z"/>
<path d="M2198 3207 l3 -234 22 3 c12 1 25 3 30 3 4 1 7 15 7 31 0 27 3 30 30
30 l30 0 0 170 0 170 -30 0 c-27 0 -30 3 -30 30 0 27 -3 30 -32 30 l-33 0 3
-233z m64 145 l27 -3 3 -121 c3 -126 -2 -144 -48 -183 -7 -5 -14 -19 -17 -30
-3 -11 -5 72 -5 185 0 113 3 194 7 180 5 -17 15 -26 33 -28z"/>
<path d="M2372 3080 c0 -14 2 -19 5 -12 2 6 2 18 0 25 -3 6 -5 1 -5 -13z"/>
<path d="M2350 3020 c0 -5 5 -10 11 -10 5 0 7 5 4 10 -3 6 -8 10 -11 10 -2 0
-4 -4 -4 -10z"/>
<path d="M2488 3003 c7 -3 16 -2 19 1 4 3 -2 6 -13 5 -11 0 -14 -3 -6 -6z"/>
<path d="M810 2992 l5 -457 3 449 c1 248 -1 453 -5 457 -5 5 -6 -198 -3 -449z"/>
<path d="M2590 3440 c-9 -6 -10 -10 -3 -10 6 0 15 5 18 10 8 12 4 12 -15 0z"/>
<path d="M1110 3360 c0 -5 5 -10 11 -10 5 0 7 5 4 10 -3 6 -8 10 -11 10 -2 0
-4 -4 -4 -10z"/>
<path d="M3625 3280 c-4 -6 1 -7 11 -3 12 4 15 3 10 -5 -4 -7 -14 -12 -22 -12
-8 0 -14 -7 -14 -16 0 -8 -4 -13 -9 -9 -5 3 -13 0 -16 -5 -4 -6 -18 -16 -32
-21 -21 -8 -24 -14 -18 -36 11 -44 11 -48 0 -46 -11 2 -9 -58 2 -87 11 -29 12
-44 1 -57 -8 -10 -6 -13 8 -13 14 0 16 -2 6 -9 -10 -6 -7 -10 13 -15 21 -5 25
-11 20 -29 -4 -12 -23 -35 -41 -52 l-35 -30 3 -140 3 -140 31 -9 c22 -7 33
-18 40 -40 8 -28 14 -31 52 -34 24 -2 42 0 39 5 -3 4 62 5 145 2 83 -3 173 -5
202 -3 28 1 88 3 133 3 106 1 122 15 118 99 -2 45 -1 48 4 17 3 -22 5 52 5
165 -1 113 -5 222 -9 243 -5 25 -4 37 4 37 7 0 10 16 9 43 -1 23 1 52 5 65 5
13 4 22 -2 22 -5 0 -11 -6 -14 -12 -2 -7 -2 -1 0 13 5 33 -44 79 -60 57 -6 -9
-7 -7 -3 6 4 11 0 24 -11 33 -17 13 -17 14 -1 9 10 -3 20 -1 23 4 3 5 -119 9
-294 10 -193 0 -302 -3 -306 -10z m565 -49 c0 -25 4 -30 28 -33 l27 -3 3 -342
2 -343 -115 0 -115 0 0 30 c0 27 -3 30 -30 30 -27 0 -30 -3 -30 -30 l0 -30
-175 0 c-133 0 -175 3 -176 13 -1 6 -2 19 -3 27 0 8 -14 17 -31 20 l-30 5 -3
137 -3 137 33 3 c29 3 33 7 36 36 l3 33 142 -2 c132 -1 142 0 143 17 1 11 2
25 3 32 1 7 17 12 46 12 l45 0 0 105 c0 58 -3 105 -7 106 -5 0 -25 1 -46 2
l-37 2 0 -62 0 -63 -30 0 c-17 0 -31 -6 -32 -12 -1 -12 -4 -43 -7 -75 -1 -10
-34 -13 -130 -13 l-129 0 2 113 1 112 42 3 c32 2 41 7 36 18 -3 7 -3 21 1 29
5 13 44 15 271 15 l265 0 0 -29z m-563 -3 c-3 -8 -6 -5 -6 6 -1 11 2 17 5 13
3 -3 4 -12 1 -19z m335 -98 c4 0 7 -21 6 -47 l-1 -48 -7 45 -7 45 -1 -52 c-1
-33 2 -53 11 -56 6 -2 8 -8 4 -13 -4 -5 -12 -3 -16 4 -6 11 -16 9 -45 -7 -44
-25 -53 -26 -35 -4 12 15 12 16 -4 10 -11 -4 -16 -3 -12 3 3 6 12 10 19 10 19
0 58 58 56 83 -1 12 -1 33 0 47 l1 25 11 -22 c6 -13 15 -23 20 -23z m8 25 c0
-8 -2 -15 -4 -15 -2 0 -6 7 -10 15 -3 8 -1 15 4 15 6 0 10 -7 10 -15z m-423
-97 c-2 -13 -4 -3 -4 22 0 25 2 35 4 23 2 -13 2 -33 0 -45z m323 -108 c0 -5
-8 -10 -17 -10 -15 0 -16 2 -3 10 19 12 20 12 20 0z m-193 -6 c-3 -3 -12 -4
-19 -1 -8 3 -5 6 6 6 11 1 17 -2 13 -5z m340 -450 c2 -6 -3 -11 -11 -11 -8 0
-13 4 -10 9 3 4 1 8 -5 8 -5 0 -11 -6 -14 -12 -2 -7 -8 -9 -13 -5 -10 10 16
28 35 24 8 -1 16 -7 18 -13z m-370 -10 c-3 -3 -12 -4 -19 -1 -8 3 -5 6 6 6 11
1 17 -2 13 -5z"/>
<path d="M4165 3170 c3 -5 8 -10 11 -10 2 0 4 5 4 10 0 6 -5 10 -11 10 -5 0
-7 -4 -4 -10z"/>
<path d="M3766 3043 c-6 -14 -5 -15 5 -6 7 7 10 15 7 18 -3 3 -9 -2 -12 -12z"/>
<path d="M3772 2860 c0 -14 2 -19 5 -12 2 6 2 18 0 25 -3 6 -5 1 -5 -13z"/>
<path d="M3651 2854 c0 -11 3 -14 6 -6 3 7 2 16 -1 19 -3 4 -6 -2 -5 -13z"/>
<path d="M3836 2834 c-9 -22 -7 -237 2 -249 10 -14 57 -12 58 3 1 6 2 21 3 32
1 15 8 20 31 20 l30 0 0 105 0 105 -59 0 c-44 0 -60 -4 -65 -16z m102 -67 l-2
-52 -3 48 c-2 26 -7 47 -11 47 -10 0 -2 -93 9 -104 5 -6 9 -13 9 -17 0 -6 -56
-39 -67 -39 -1 0 -3 38 -3 84 l0 85 28 3 c40 5 42 2 40 -55z"/>
<path d="M3611 2814 c0 -11 3 -14 6 -6 3 7 2 16 -1 19 -3 4 -6 -2 -5 -13z"/>
<path d="M4495 3280 c3 -5 13 -6 22 -3 11 4 14 3 9 -5 -4 -7 -17 -12 -29 -12
-22 -1 -22 -1 -3 -15 20 -15 20 -15 0 -15 -23 -1 -56 -24 -47 -33 3 -4 1 -7
-6 -7 -7 0 -9 -4 -6 -10 3 -5 0 -10 -7 -10 -10 0 -9 -3 2 -11 12 -9 11 -10 -8
-6 -47 11 -52 -17 -52 -266 0 -129 4 -236 10 -247 5 -10 22 -21 37 -25 26 -7
26 -8 8 -15 -17 -7 -17 -9 -2 -9 9 -1 17 -5 17 -10 0 -15 -18 -23 -23 -11 -3
6 -4 5 -3 -2 2 -8 17 -13 38 -13 20 0 34 -3 31 -7 -2 -5 0 -8 6 -8 5 0 12 6
14 13 3 6 6 2 6 -9 1 -14 -7 -24 -20 -27 -13 -3 -18 -10 -14 -17 4 -7 18 -9
33 -5 20 5 23 4 15 -7 -9 -11 19 -13 155 -10 92 1 195 3 229 5 33 1 59 -1 56
-6 -2 -4 9 -6 26 -5 16 1 28 6 25 10 -3 4 -12 4 -22 1 -16 -6 -16 -5 1 14 9
11 18 28 18 39 1 12 4 7 9 -11 l8 -30 1 31 c1 25 5 30 22 30 12 -1 24 6 26 14
4 13 3 13 -6 0 -16 -23 -19 -8 -4 20 7 14 13 19 13 13 0 -7 5 -13 11 -13 5 0
8 4 5 9 -3 5 5 16 19 25 l25 16 0 240 c0 195 -3 241 -15 253 -8 8 -11 18 -7
22 4 3 -7 4 -23 0 -23 -5 -26 -4 -15 4 10 7 11 11 3 11 -7 0 -13 8 -13 18 0
10 -15 26 -35 36 -34 19 -42 30 -27 39 4 2 2 2 -5 1 -6 -2 -14 4 -17 12 -5 12
-44 14 -251 14 -141 -1 -243 -5 -240 -10z m487 -47 c2 -22 9 -29 33 -33 21 -4
30 -11 31 -25 1 -11 2 -25 3 -32 1 -6 13 -13 29 -15 l27 -3 3 -242 2 -242 -32
-3 c-21 -2 -33 -9 -34 -18 -2 -35 -5 -39 -31 -42 -23 -2 -29 -8 -31 -35 l-3
-33 -224 0 -224 0 -3 33 c-2 26 -7 32 -27 32 -19 0 -27 8 -33 33 -7 27 -13 32
-38 32 l-30 0 0 244 0 245 33 3 c28 3 32 7 32 33 1 25 5 31 30 35 24 4 31 11
33 33 l3 27 224 0 224 0 3 -27z"/>
<path d="M4608 3213 c6 -2 18 -2 25 0 6 3 1 5 -13 5 -14 0 -19 -2 -12 -5z"/>
<path d="M4658 3213 c7 -3 16 -2 19 1 4 3 -2 6 -13 5 -11 0 -14 -3 -6 -6z"/>
<path d="M4760 3161 c0 -26 -4 -30 -32 -33 l-33 -3 0 -275 0 -274 24 0 c20 0
27 7 33 32 7 27 13 32 38 32 l30 0 0 275 0 275 -30 0 c-27 0 -30 -3 -30 -29z
m34 -6 c3 -8 1 -15 -4 -15 -6 0 -10 7 -10 15 0 8 2 15 4 15 2 0 6 -7 10 -15z
m-4 -266 c0 -197 -2 -217 -17 -223 -10 -3 -24 -9 -30 -12 -10 -4 -13 43 -13
219 0 207 1 226 18 229 43 9 42 14 42 -213z"/>
<path d="M4688 3173 c6 -2 18 -2 25 0 6 3 1 5 -13 5 -14 0 -19 -2 -12 -5z"/>
<path d="M4708 3153 c7 -3 16 -2 19 1 4 3 -2 6 -13 5 -11 0 -14 -3 -6 -6z"/>
<path d="M4540 2590 c0 -5 5 -10 11 -10 5 0 7 5 4 10 -3 6 -8 10 -11 10 -2 0
-4 -4 -4 -10z"/>
<path d="M1237 2971 c-4 -17 -3 -21 5 -13 5 5 8 16 6 23 -3 8 -7 3 -11 -10z"/>
<path d="M797 2499 c7 -7 15 -10 18 -7 3 3 -2 9 -12 12 -14 6 -15 5 -6 -5z"/>
</g>
</svg>